<?xml version="1.0" encoding="utf-8"?>
<!-- Generator: Adobe Illustrator 24.1.3, SVG Export Plug-In . SVG Version: 6.00 Build 0)  -->
<svg version="1.1" id="Warstwa_1" focusable="false"
	 xmlns="http://www.w3.org/2000/svg" xmlns:xlink="http://www.w3.org/1999/xlink" x="0px" y="0px" viewBox="0 0 512 512"
	 style="enable-background:new 0 0 512 512;" xml:space="preserve">
<style type="text/css">
	.st0{fill:#00FF00;}
</style>
<path class="st0" d="M500,176h-59.9l-16.6-41.6C406.4,91.6,365.6,64,319.5,64h-127c-46.1,0-86.9,27.6-104,70.4L71.9,176H12
	c-7.8,0-13.5,7.3-11.6,14.9l6,24c1.3,5.3,6.1,9.1,11.6,9.1h20.1C24.6,235.7,16,252.8,16,272v48c0,16.1,6.2,30.7,16,41.9V416
	c0,17.7,14.3,32,32,32h32c17.7,0,32-14.3,32-32v-32h256v32c0,17.7,14.3,32,32,32h32c17.7,0,32-14.3,32-32v-54.1
	c9.8-11.3,16-25.8,16-41.9v-48c0-19.2-8.6-36.3-22.1-48H494c5.5,0,10.3-3.8,11.6-9.1l6-24C513.5,183.3,507.8,176,500,176L500,176z
	 M147.9,158.2c7.3-18.2,24.9-30.2,44.6-30.2h127c19.6,0,37.3,12,44.6,30.2L384,208H128L147.9,158.2z M96,319.8
	c-19.2,0-32-12.8-32-31.9S76.8,256,96,256s48,28.7,48,47.9S115.2,319.8,96,319.8L96,319.8z M416,319.8c-19.2,0-48,3.2-48-16
	s28.8-47.8,48-47.8s32,12.8,32,31.9S435.2,319.8,416,319.8z"/>
</svg>
